<svg width="33" height="33" viewBox="0 0 33 33" fill="none" xmlns="http://www.w3.org/2000/svg">
<path d="M1.5 9V25.5C1.5 27.6002 1.5 28.6496 1.90873 29.4517C2.26825 30.1573 2.84151 30.7322 3.54712 31.0917C4.3485 31.5 5.39811 31.5 7.49421 31.5H25.5058C27.6019 31.5 28.65 31.5 29.4514 31.0917C30.157 30.7322 30.7321 30.1573 31.0917 29.4517C31.5 28.6503 31.5 27.6019 31.5 25.5058V9M1.5 9H31.5M1.5 9L4.05971 4.52042C4.68788 3.42112 5.0019 2.87158 5.44359 2.47137C5.8347 2.11701 6.29735 1.84885 6.79907 1.68509C7.36614 1.5 7.99918 1.5 9.26733 1.5H23.732C25.0002 1.5 25.6355 1.5 26.2026 1.68509C26.7043 1.84885 27.1648 2.11701 27.5559 2.47137C27.998 2.8719 28.3128 3.42201 28.942 4.52307L31.5 9M16.5 14.625V25.875M16.5 25.875L22.125 22.125M16.5 25.875L10.875 22.125" stroke="#0047AB" stroke-width="3" stroke-linecap="round" stroke-linejoin="round"/>
</svg>
