<svg width="82" height="65" viewBox="0 0 82 65" fill="none" xmlns="http://www.w3.org/2000/svg">
<path d="M58.7435 36.9408L58.657 31.1723C58.6366 29.645 57.4809 29.6246 56.7987 29.0798C55.5462 29.7875 54.0341 30.261 52.8478 31.0502C48.9225 33.6671 44.8494 36.2229 40.6542 38.3765C39.4323 39.0027 38.9385 40.301 38.9385 41.5433L38.9537 58.599C38.9537 60.1468 38.9334 61.72 39.193 63.2372C39.8956 64.1383 41.0717 64.4285 42.1714 63.7463L57.822 54.0372C58.5093 53.6096 58.6875 52.7542 58.6875 52.0262L58.7486 41.5229C58.7588 39.9701 58.7639 38.4783 58.7384 36.9357L58.7435 36.9408ZM42.9249 58.6754L42.8995 41.8284L54.7062 34.665L54.7927 51.2472L42.9199 58.6703L42.9249 58.6754Z" fill="#0047AB"/>
<path d="M15.7575 38.8704L3.96101 31.6866L3.9712 15.0992L14.8054 21.723C15.1364 21.9266 15.4062 22.0386 15.7168 21.9775C15.7168 20.6843 16.2361 19.4522 17.4682 18.7853L5.86006 11.4997L17.7686 4.28026L29.4378 11.5048C30.6342 10.7004 32.2482 10.3338 33.3581 9.32571L19.1941 0.477081C18.4457 0.00868415 17.4885 -0.205149 16.7248 0.258156L0.926616 9.80938C0.442945 10.0996 0 10.7207 0 11.2858V32.6794C0 33.4991 0.448037 34.2271 1.15063 34.6548L15.7371 43.4881C15.8542 41.9557 15.7626 40.413 15.7626 38.8754L15.7575 38.8704Z" fill="#6194DD"/>
<path d="M23.0735 37.0985C21.8873 37.4855 21.0116 38.407 19.6878 39.0128V22.1913L31.5403 15.0075L31.6218 24.6809C32.808 23.8358 34.2438 23.2044 35.5421 22.4255L35.4962 11.5251C35.4911 9.92133 34.2896 9.89587 33.363 9.32056C32.2531 10.3337 30.6392 10.6952 29.4427 11.4996C25.5886 14.0911 21.5665 16.5553 17.4731 18.775C16.241 19.4471 15.7166 20.6741 15.7217 21.9673L15.7624 38.8601C15.7624 40.3977 15.8541 41.9403 15.737 43.4728C16.6432 44.0227 17.4375 44.9594 18.7714 44.2009C20.1206 43.4321 21.4647 42.4545 22.8342 41.7774C23.6896 41.2581 23.0684 37.1138 23.0684 37.0883L23.0735 37.0985Z" fill="#0047AB"/>
<path d="M27.167 51.2676L27.2026 34.7719L38.0013 41.2887C38.3373 41.4923 38.6529 41.5585 38.938 41.5534C38.938 40.3112 39.4319 39.018 40.6538 38.3867L29.0559 31.1214L40.9338 23.8867L52.8525 31.0552C54.0337 30.2661 55.5458 29.7875 56.8033 29.0849C54.8483 27.5168 52.5979 26.4375 50.3527 24.9152L50.4698 15.1247L60.8051 21.4124C61.2887 21.7077 61.7164 21.9215 62.1899 21.9673C62.1899 20.7861 62.7499 19.3504 63.8802 18.7751L52.2823 11.5099L64.2061 4.29552L75.9822 11.3826C76.0738 11.4386 75.9465 11.688 75.9363 11.6982C77.2754 10.9193 78.5533 10.0028 80.0196 9.49371C75.4629 6.16402 70.3767 3.51147 65.5247 0.385428C64.5675 -0.230615 63.5442 -0.00659917 62.6583 0.527984L47.3641 9.80428C46.7379 10.1861 46.4273 10.8989 46.4222 11.5709L46.356 22.5019L41.9775 19.9155C41.2902 19.5082 40.3738 19.5286 39.6203 19.9817L35.5473 22.4255C34.249 23.2045 32.8132 23.8307 31.627 24.681C29.3766 26.2898 26.999 27.7663 24.4686 29.1766C23.5166 29.7061 23.1042 30.6683 23.1704 31.7477C23.2824 33.6161 23.1704 35.3675 23.0838 37.0986C23.0838 37.124 23.6999 41.2683 22.8496 41.7876C23.15 41.8182 23.1755 42.1237 23.1704 42.48L23.1602 52.0007C23.1602 52.9986 23.6438 53.7929 24.4686 54.3122L37.5379 62.4837C38.1133 62.8451 38.6224 63.1608 39.1977 63.2422C38.9381 61.725 38.9635 60.1518 38.9584 58.6041L27.167 51.2676Z" fill="#6194DD"/>
<path d="M80.0093 9.49377C78.5481 10.0029 77.2651 10.9193 75.9261 11.6983C71.8989 14.0505 68.0143 16.6776 63.87 18.7752C62.7397 19.3454 62.1797 20.7862 62.1797 21.9674L62.1899 39.0639L62.4393 43.6511C63.5442 44.2621 64.2773 44.8628 65.6927 43.982L81.0021 34.4665C81.6335 34.0744 81.9287 33.4686 81.9338 32.7151L82 11.7696C82.0051 10.0182 80.9258 10.1658 80.0042 9.49377H80.0093ZM66.2374 38.9671L66.1356 22.1914L78.0441 15.0178V31.6866L66.2374 38.9671Z" fill="#0047AB"/>
<path d="M58.7432 36.9407C58.7686 38.4833 58.7635 39.9751 58.7533 41.5279C59.8785 42.4392 61.2226 42.9738 62.4445 43.651L62.195 39.0637L58.7432 36.9407Z" fill="#6194DD"/>
</svg>
